<?xml version="1.0" encoding="utf-8"?>
<!-- Generator: Adobe Illustrator 26.2.1, SVG Export Plug-In . SVG Version: 6.00 Build 0)  -->
<svg version="1.1" id="Layer_1" xmlns="http://www.w3.org/2000/svg" xmlns:xlink="http://www.w3.org/1999/xlink" x="0px" y="0px"
	 viewBox="0 0 550 197" style="enable-background:new 0 0 550 197;" xml:space="preserve">
<style type="text/css">
	.st0{fill:#FFFFFF;}
	.st1{fill:none;stroke:#000000;stroke-width:0.5;stroke-miterlimit:10;}
	.st2{fill:#FFFFFF;stroke:#000000;stroke-width:0.5;stroke-miterlimit:10;}
	.st3{fill:none;stroke:#000000;stroke-width:3;stroke-miterlimit:10;}
	.st4{font-family:'MyriadPro-Regular';}
	.st5{font-size:18px;}
	.st6{font-family:'ClassicComic';}
	.st7{font-size:24px;}
</style>
<g>
	<g>
		<rect x="9.53" y="8.52" class="st0" width="323.47" height="35.47"/>
		<path d="M332.73,8.78v34.94H9.79V8.78H332.73 M333.26,8.25h-324v36h324V8.25L333.26,8.25z"/>
	</g>
	<line class="st1" x1="261.26" y1="44.25" x2="261.26" y2="8.25"/>
	<line class="st1" x1="225.26" y1="44.25" x2="225.26" y2="8.25"/>
	<line class="st1" x1="189.26" y1="44.25" x2="189.26" y2="8.25"/>
	<line class="st1" x1="153.26" y1="44.25" x2="153.26" y2="8.25"/>
	<line class="st1" x1="117.26" y1="44.25" x2="117.26" y2="8.25"/>
	<line class="st1" x1="81.26" y1="44.25" x2="81.26" y2="8.25"/>
	<line class="st1" x1="45.26" y1="44.25" x2="45.26" y2="8.25"/>
	<line class="st1" x1="297.5" y1="44.25" x2="297.5" y2="8.25"/>
</g>
<g>
	<rect x="45.26" y="44.25" class="st2" width="252" height="36"/>
	<line class="st1" x1="261.26" y1="80.25" x2="261.26" y2="44.25"/>
	<line class="st1" x1="225.26" y1="80.25" x2="225.26" y2="44.25"/>
	<line class="st1" x1="189.26" y1="80.25" x2="189.26" y2="44.25"/>
	<line class="st1" x1="153.26" y1="80.25" x2="153.26" y2="44.25"/>
	<line class="st1" x1="117.26" y1="80.25" x2="117.26" y2="44.25"/>
	<line class="st1" x1="81.26" y1="80.25" x2="81.26" y2="44.25"/>
</g>
<g>
	<g>
		<rect x="81.51" y="80.5" class="st0" width="287.5" height="35.5"/>
		<path d="M368.76,80.75v35h-287v-35H368.76 M369.26,80.25h-288v36h288V80.25L369.26,80.25z"/>
	</g>
	<line class="st1" x1="333.26" y1="116.25" x2="333.26" y2="80.25"/>
	<line class="st1" x1="297.26" y1="116.25" x2="297.26" y2="80.25"/>
	<line class="st1" x1="261.26" y1="116.25" x2="261.26" y2="80.25"/>
	<line class="st1" x1="225.26" y1="116.25" x2="225.26" y2="80.25"/>
	<line class="st1" x1="189.26" y1="116.25" x2="189.26" y2="80.25"/>
	<line class="st1" x1="153.26" y1="116.25" x2="153.26" y2="80.25"/>
	<line class="st1" x1="117.26" y1="116.25" x2="117.26" y2="80.25"/>
</g>
<g>
	<rect x="45.26" y="116.25" class="st2" width="324" height="36"/>
	<line class="st1" x1="333.26" y1="152.25" x2="333.26" y2="116.25"/>
	<line class="st1" x1="297.26" y1="152.25" x2="297.26" y2="116.25"/>
	<line class="st1" x1="261.26" y1="152.25" x2="261.26" y2="116.25"/>
	<line class="st1" x1="225.26" y1="152.25" x2="225.26" y2="116.25"/>
	<line class="st1" x1="153.26" y1="152.25" x2="153.26" y2="116.25"/>
	<line class="st1" x1="117.26" y1="152.25" x2="117.26" y2="116.25"/>
	<line class="st1" x1="81.26" y1="152.25" x2="81.26" y2="116.25"/>
	<line class="st1" x1="189.26" y1="152.25" x2="189.26" y2="116.25"/>
</g>
<g>
	<rect x="9.26" y="152.25" class="st2" width="216" height="36"/>
	<line class="st1" x1="189.26" y1="188.25" x2="189.26" y2="152.25"/>
	<line class="st1" x1="153.26" y1="188.25" x2="153.26" y2="152.25"/>
	<line class="st1" x1="117.26" y1="188.25" x2="117.26" y2="152.25"/>
	<line class="st1" x1="81.26" y1="188.25" x2="81.26" y2="152.25"/>
	<line class="st1" x1="45.26" y1="188.25" x2="45.26" y2="152.25"/>
</g>
<rect x="80.76" y="8.75" class="st3" width="36" height="180"/>
<text transform="matrix(1 0 0 1 382.5518 33.1196)" class="st4 st5">Wine Expert</text>
<text transform="matrix(1 0 0 1 382.5519 70.1048)" class="st4 st5">General and Savior</text>
<text transform="matrix(1 0 0 1 382.5517 107.0899)" class="st4 st5">Sick Scholar</text>
<text transform="matrix(1 0 0 1 382.5519 144.075)" class="st4 st5">Doctor and Hypnotist</text>
<text transform="matrix(1 0 0 1 382.5519 181.0601)" class="st4 st5">Lost Lover</text>
<text transform="matrix(1 0 0 1 52.3418 36.8223)" class="st6 st7">O</text>
<text transform="matrix(1 0 0 1 161.7484 69.8215)" class="st6 st7">a</text>
<text transform="matrix(1 0 0 1 126.7484 72.8215)" class="st6 st7">s</text>
<text transform="matrix(1 0 0 1 90.7484 69.8215)" class="st6 st7">a</text>
<text transform="matrix(1 0 0 1 55.7484 69.8215)" class="st6 st7">l</text>
<text transform="matrix(1 0 0 1 305.7484 36.8215)" class="st6 st7">o</text>
<text transform="matrix(1 0 0 1 269.7484 34.8215)" class="st6 st7">T</text>
<text transform="matrix(1 0 0 1 234.7484 36.8215)" class="st6 st7">A</text>
<text transform="matrix(1 0 0 1 198.7484 32.8215)" class="st6 st7">N</text>
<text transform="matrix(1 0 0 1 163.7484 36.8215)" class="st6 st7">U</text>
<text transform="matrix(1 0 0 1 126.7484 36.8215)" class="st6 st7">T</text>
<text transform="matrix(1 0 0 1 90.7484 36.8215)" class="st6 st7">r</text>
<text transform="matrix(1 0 0 1 161.7484 143.8215)" class="st6 st7">p</text>
<text transform="matrix(1 0 0 1 126.7484 143.8215)" class="st6 st7">m</text>
<text transform="matrix(1 0 0 1 91.7484 141.8215)" class="st6 st7">e</text>
<text transform="matrix(1 0 0 1 52.7484 143.8215)" class="st6 st7">t</text>
<text transform="matrix(1 0 0 1 344.7484 107.8215)" class="st6 st7">r</text>
<text transform="matrix(1 0 0 1 307.7484 106.8215)" class="st6 st7">a</text>
<text transform="matrix(1 0 0 1 269.7484 107.8215)" class="st6 st7">m</text>
<text transform="matrix(1 0 0 1 237.7484 104.8215)" class="st6 st7">e</text>
<text transform="matrix(1 0 0 1 198.7484 107.8215)" class="st6 st7">d</text>
<text transform="matrix(1 0 0 1 163.7484 107.8215)" class="st6 st7">l</text>
<text transform="matrix(1 0 0 1 126.7484 107.8215)" class="st6 st7">a</text>
<text transform="matrix(1 0 0 1 91.7484 107.8215)" class="st6 st7">v</text>
<text transform="matrix(1 0 0 1 272.7484 69.8215)" class="st6 st7">e</text>
<text transform="matrix(1 0 0 1 232.7484 72.8215)" class="st6 st7">l</text>
<text transform="matrix(1 0 0 1 196.7484 69.8215)" class="st6 st7">l</text>
<text transform="matrix(1 0 0 1 198.7484 179.8215)" class="st6 st7">e</text>
<text transform="matrix(1 0 0 1 165.7484 175.8215)" class="st6 st7">r</text>
<text transform="matrix(1 0 0 1 125.7484 177.8215)" class="st6 st7">o</text>
<text transform="matrix(1 0 0 1 91.7484 179.8215)" class="st6 st7">n</text>
<text transform="matrix(1 0 0 1 55.7484 177.8215)" class="st6 st7">e</text>
<text transform="matrix(1 0 0 1 18.7484 179.8215)" class="st6 st7">l</text>
<text transform="matrix(1 0 0 1 341.7484 143.8215)" class="st6 st7">n</text>
<text transform="matrix(1 0 0 1 305.7484 141.8215)" class="st6 st7">o</text>
<text transform="matrix(1 0 0 1 267.7484 143.8215)" class="st6 st7">t</text>
<text transform="matrix(1 0 0 1 237.7484 141.8215)" class="st6 st7">e</text>
<text transform="matrix(1 0 0 1 198.7484 141.8215)" class="st6 st7">l</text>
<text transform="matrix(1 0 0 1 19.8679 32.9919)" class="st6 st7">F</text>
</svg>
