<?xml version="1.0" encoding="utf-8"?>
<!-- Generator: Adobe Illustrator 26.2.1, SVG Export Plug-In . SVG Version: 6.00 Build 0)  -->
<svg version="1.1" id="Layer_1" xmlns="http://www.w3.org/2000/svg" xmlns:xlink="http://www.w3.org/1999/xlink" x="0px" y="0px"
	 viewBox="0 0 1366 768" style="enable-background:new 0 0 1366 768;" xml:space="preserve">
<style type="text/css">
	.st0{clip-path:url(#SVGID_00000030447637722185238230000001297510604186894765_);}
	.st1{fill:url(#SVGID_00000088824057526373604010000002866166303109003404_);}
	.st2{fill:#4D4D4D;}
	.st3{fill:#808080;}
	.st4{fill:#666666;}
	.st5{fill:#FFFF00;}
</style>
<g>
	<defs>
		<rect id="SVGID_1_" width="1366" height="768"/>
	</defs>
	<clipPath id="SVGID_00000108305559117391628020000000318230892626997413_">
		<use xlink:href="#SVGID_1_"  style="overflow:visible;"/>
	</clipPath>
	<g style="clip-path:url(#SVGID_00000108305559117391628020000000318230892626997413_);">
		
			<radialGradient id="SVGID_00000080196707380083557310000002535814107406509230_" cx="399.9005" cy="598.214" r="964.7885" gradientUnits="userSpaceOnUse">
			<stop  offset="0" style="stop-color:#E3E5F3"/>
			<stop  offset="0.1197" style="stop-color:#E38C59"/>
			<stop  offset="0.4293" style="stop-color:#A33D4B"/>
			<stop  offset="1" style="stop-color:#46142A"/>
		</radialGradient>
		<rect style="fill:url(#SVGID_00000080196707380083557310000002535814107406509230_);" width="1366" height="768"/>
	</g>
	<g style="clip-path:url(#SVGID_00000108305559117391628020000000318230892626997413_);">
		<rect x="319.46" y="368.46" class="st2" width="619.08" height="410.08"/>
		<path d="M936.08,370.92v405.17H321.92V370.92H936.08 M941,366H317v415h624V366L941,366z"/>
	</g>
	<g style="clip-path:url(#SVGID_00000108305559117391628020000000318230892626997413_);">
		<rect x="43.52" y="78.52" class="st3" width="334.95" height="699.95"/>
		<path d="M375.95,81.05v694.91H46.05V81.05H375.95 M381,76H41v705h340V76L381,76z"/>
	</g>
	<g style="clip-path:url(#SVGID_00000108305559117391628020000000318230892626997413_);">
		<rect x="976.19" y="10.44" class="st4" width="378.12" height="768.12"/>
		<path d="M1351.87,12.88v763.24H978.63V12.88H1351.87 M1356.75,8h-383v773h383V8L1356.75,8z"/>
	</g>
	<g style="clip-path:url(#SVGID_00000108305559117391628020000000318230892626997413_);">
		<rect x="90.52" y="129.52" width="94.95" height="144.95"/>
		<path d="M182.95,132.05v139.91H93.05V132.05H182.95 M188,127H88v150h100V127L188,127z"/>
	</g>
	<g style="clip-path:url(#SVGID_00000108305559117391628020000000318230892626997413_);">
		<rect x="236.52" y="129.52" class="st5" width="94.95" height="144.95"/>
		<path d="M328.95,132.05v139.91h-89.91V132.05H328.95 M334,127H234v150h100V127L334,127z"/>
	</g>
	<g style="clip-path:url(#SVGID_00000108305559117391628020000000318230892626997413_);">
		<rect x="90.52" y="334.52" class="st5" width="94.95" height="144.95"/>
		<path d="M182.95,337.05v139.91H93.05V337.05H182.95 M188,332H88v150h100V332L188,332z"/>
	</g>
	<g style="clip-path:url(#SVGID_00000108305559117391628020000000318230892626997413_);">
		<rect x="90.52" y="539.52" width="94.95" height="144.95"/>
		<path d="M182.95,542.05v139.91H93.05V542.05H182.95 M188,537H88v150h100V537L188,537z"/>
	</g>
	<g style="clip-path:url(#SVGID_00000108305559117391628020000000318230892626997413_);">
		<rect x="236.52" y="334.52" width="94.95" height="144.95"/>
		<path d="M328.95,337.05v139.91h-89.91V337.05H328.95 M334,332H234v150h100V332L334,332z"/>
	</g>
	<g style="clip-path:url(#SVGID_00000108305559117391628020000000318230892626997413_);">
		<rect x="236.52" y="539.52" width="94.95" height="144.95"/>
		<path d="M328.95,542.05v139.91h-89.91V542.05H328.95 M334,537H234v150h100V537L334,537z"/>
	</g>
	<g style="clip-path:url(#SVGID_00000108305559117391628020000000318230892626997413_);">
		<rect x="395.54" y="395.98" width="63.3" height="96.63"/>
		<path d="M457.16,397.67v93.27h-59.94v-93.27H457.16 M460.53,394.3h-66.67v100h66.67V394.3L460.53,394.3z"/>
	</g>
	<g style="clip-path:url(#SVGID_00000108305559117391628020000000318230892626997413_);">
		<rect x="507.54" y="395.98" class="st5" width="63.3" height="96.63"/>
		<path d="M569.16,397.67v93.27h-59.94v-93.27H569.16 M572.53,394.3h-66.67v100h66.67V394.3L572.53,394.3z"/>
	</g>
	<g style="clip-path:url(#SVGID_00000108305559117391628020000000318230892626997413_);">
		<rect x="395.54" y="524.98" class="st5" width="63.3" height="96.63"/>
		<path d="M457.16,526.67v93.27h-59.94v-93.27H457.16 M460.53,523.3h-66.67v100h66.67V523.3L460.53,523.3z"/>
	</g>
	<g style="clip-path:url(#SVGID_00000108305559117391628020000000318230892626997413_);">
		<rect x="395.54" y="653.98" class="st5" width="63.3" height="96.63"/>
		<path d="M457.16,655.67v93.27h-59.94v-93.27H457.16 M460.53,652.3h-66.67v100h66.67V652.3L460.53,652.3z"/>
	</g>
	<g style="clip-path:url(#SVGID_00000108305559117391628020000000318230892626997413_);">
		<rect x="507.54" y="524.98" width="63.3" height="96.63"/>
		<path d="M569.16,526.67v93.27h-59.94v-93.27H569.16 M572.53,523.3h-66.67v100h66.67V523.3L572.53,523.3z"/>
	</g>
	<g style="clip-path:url(#SVGID_00000108305559117391628020000000318230892626997413_);">
		<rect x="507.54" y="653.98" width="63.3" height="96.63"/>
		<path d="M569.16,655.67v93.27h-59.94v-93.27H569.16 M572.53,652.3h-66.67v100h66.67V652.3L572.53,652.3z"/>
	</g>
	<g style="clip-path:url(#SVGID_00000108305559117391628020000000318230892626997413_);">
		<rect x="685.54" y="395.98" class="st5" width="63.3" height="96.64"/>
		<path d="M747.16,397.67v93.27h-59.94v-93.27H747.16 M750.53,394.3h-66.67v100h66.67V394.3L750.53,394.3z"/>
	</g>
	<g style="clip-path:url(#SVGID_00000108305559117391628020000000318230892626997413_);">
		<rect x="797.54" y="395.98" class="st5" width="63.3" height="96.64"/>
		<path d="M859.16,397.67v93.27h-59.94v-93.27H859.16 M862.53,394.3h-66.67v100h66.67V394.3L862.53,394.3z"/>
	</g>
	<g style="clip-path:url(#SVGID_00000108305559117391628020000000318230892626997413_);">
		<rect x="685.54" y="524.98" class="st5" width="63.3" height="96.63"/>
		<path d="M747.16,526.67v93.27h-59.94v-93.27H747.16 M750.53,523.3h-66.67v100h66.67V523.3L750.53,523.3z"/>
	</g>
	<g style="clip-path:url(#SVGID_00000108305559117391628020000000318230892626997413_);">
		<rect x="685.54" y="653.98" class="st5" width="63.3" height="96.63"/>
		<path d="M747.16,655.67v93.27h-59.94v-93.27H747.16 M750.53,652.3h-66.67v100h66.67V652.3L750.53,652.3z"/>
	</g>
	<g style="clip-path:url(#SVGID_00000108305559117391628020000000318230892626997413_);">
		<rect x="797.54" y="524.98" width="63.3" height="96.63"/>
		<path d="M859.16,526.67v93.27h-59.94v-93.27H859.16 M862.53,523.3h-66.67v100h66.67V523.3L862.53,523.3z"/>
	</g>
	<g style="clip-path:url(#SVGID_00000108305559117391628020000000318230892626997413_);">
		<rect x="797.54" y="653.98" width="63.3" height="96.63"/>
		<path d="M859.16,655.67v93.27h-59.94v-93.27H859.16 M862.53,652.3h-66.67v100h66.67V652.3L862.53,652.3z"/>
	</g>
	<g style="clip-path:url(#SVGID_00000108305559117391628020000000318230892626997413_);">
		<rect x="1017.28" y="53.28" class="st5" width="123.44" height="188.44"/>
		<path d="M1137.44,56.56v181.88h-116.88V56.56H1137.44 M1144,50h-130v195h130V50L1144,50z"/>
	</g>
	<g style="clip-path:url(#SVGID_00000108305559117391628020000000318230892626997413_);">
		<rect x="1189.53" y="53.28" class="st5" width="123.44" height="188.44"/>
		<path d="M1309.69,56.56v181.88h-116.88V56.56H1309.69 M1316.25,50h-130v195h130V50L1316.25,50z"/>
	</g>
	<g style="clip-path:url(#SVGID_00000108305559117391628020000000318230892626997413_);">
		<rect x="1017.28" y="300.28" width="123.44" height="188.44"/>
		<path d="M1137.44,303.56v181.88h-116.88V303.56H1137.44 M1144,297h-130v195h130V297L1144,297z"/>
	</g>
	<g style="clip-path:url(#SVGID_00000108305559117391628020000000318230892626997413_);">
		<rect x="1017.28" y="547.28" class="st5" width="123.44" height="188.44"/>
		<path d="M1137.44,550.56v181.88h-116.88V550.56H1137.44 M1144,544h-130v195h130V544L1144,544z"/>
	</g>
	<g style="clip-path:url(#SVGID_00000108305559117391628020000000318230892626997413_);">
		<rect x="1189.53" y="300.28" class="st5" width="123.44" height="188.44"/>
		<path d="M1309.69,303.56v181.88h-116.88V303.56H1309.69 M1316.25,297h-130v195h130V297L1316.25,297z"/>
	</g>
	<g style="clip-path:url(#SVGID_00000108305559117391628020000000318230892626997413_);">
		<rect x="1189.53" y="547.28" class="st5" width="123.44" height="188.44"/>
		<path d="M1309.69,550.56v181.88h-116.88V550.56H1309.69 M1316.25,544h-130v195h130V544L1316.25,544z"/>
	</g>
</g>
</svg>
