<?xml version="1.0" encoding="utf-8"?>
<!-- Generator: Adobe Illustrator 26.1.0, SVG Export Plug-In . SVG Version: 6.00 Build 0)  -->
<svg version="1.1" id="Layer_1" xmlns="http://www.w3.org/2000/svg" xmlns:xlink="http://www.w3.org/1999/xlink" x="0px" y="0px"
	 viewBox="0 0 250 80" style="enable-background:new 0 0 250 80;" xml:space="preserve">
<style type="text/css">
	.st0{fill:#FFFFFF;}
	.st1{font-family:'Helvetica-Bold';}
	.st2{font-size:16px;}
	.st3{fill:none;stroke:#000000;stroke-miterlimit:10;}
	.st4{fill:none;stroke:#000000;stroke-width:1.293;stroke-miterlimit:10;}
</style>
<g id="A-I">
	<g>
		<g>
			<rect x="10" y="10" class="st0" width="20" height="20"/>
		</g>
		<text transform="matrix(1 0 0 1 14.0586 25.2734)" class="st1 st2">A</text>
	</g>
	<g>
		<g>
			<rect x="30" y="10" class="st0" width="20" height="20"/>
		</g>
		<text transform="matrix(1 0 0 1 34.0586 25.2734)" class="st1 st2">B</text>
	</g>
	<g>
		<g>
			<rect x="50" y="10" class="st0" width="20" height="20"/>
		</g>
		<text transform="matrix(1 0 0 1 54.0586 25.2734)" class="st1 st2">C</text>
	</g>
	<g>
		<g>
			<rect x="10" y="30" class="st0" width="20" height="20"/>
		</g>
		<text transform="matrix(1 0 0 1 14.0586 45.2734)" class="st1 st2">D</text>
	</g>
	<g>
		<g>
			<rect x="30" y="30" class="st0" width="20" height="20"/>
		</g>
		<text transform="matrix(1 0 0 1 34.5 45.2734)" class="st1 st2">E</text>
	</g>
	<g>
		<g>
			<rect x="50" y="30" class="st0" width="20" height="20"/>
		</g>
		<text transform="matrix(1 0 0 1 54.9492 45.2734)" class="st1 st2">F</text>
	</g>
	<g>
		<g>
			<rect x="10" y="50" class="st0" width="20" height="20"/>
		</g>
		<text transform="matrix(1 0 0 1 13.6133 65.2734)" class="st1 st2">G</text>
	</g>
	<g>
		<g>
			<rect x="30" y="50" class="st0" width="20" height="20"/>
		</g>
		<text transform="matrix(1 0 0 1 34.0586 65.2734)" class="st1 st2">H</text>
	</g>
	<g>
		<g>
			<rect x="50" y="50" class="st0" width="20" height="20"/>
		</g>
		<text transform="matrix(1 0 0 1 57.6133 65.2734)" class="st1 st2">I</text>
	</g>
	<line class="st3" x1="30" y1="10" x2="30" y2="70"/>
	<line class="st3" x1="50" y1="10" x2="50" y2="70"/>
	<line class="st3" x1="10" y1="30" x2="70" y2="30"/>
	<line class="st3" x1="10" y1="50" x2="70" y2="50"/>
</g>
<g id="J-M">
	<text transform="matrix(1 0 0 1 95.2029 31.5215)" class="st1 st2">J</text>
	<g>
		<line class="st4" x1="80" y1="19.8" x2="120" y2="59.8"/>
		<line class="st4" x1="120" y1="19.8" x2="80" y2="59.8"/>
	</g>
	<text transform="matrix(1 0 0 1 92.988 59.0583)" class="st1 st2">M</text>
	<text transform="matrix(1 0 0 1 79.707 45.0583)" class="st1 st2">K</text>
	<text transform="matrix(1 0 0 1 109.3006 45.0577)" class="st1 st2">L</text>
</g>
<g id="N-V">
	<g>
		<g>
			<rect x="130" y="10" class="st0" width="20" height="20"/>
		</g>
		<text transform="matrix(1 0 0 1 134.0586 25.2734)" class="st1 st2">N</text>
	</g>
	<g>
		<g>
			<rect x="150" y="10" class="st0" width="20" height="20"/>
		</g>
		<text transform="matrix(1 0 0 1 153.6133 25.2734)" class="st1 st2">O</text>
	</g>
	<g>
		<g>
			<rect x="170" y="10" class="st0" width="20" height="20"/>
		</g>
		<text transform="matrix(1 0 0 1 174.5 25.2734)" class="st1 st2">P</text>
	</g>
	<g>
		<g>
			<rect x="130" y="30" class="st0" width="20" height="20"/>
		</g>
		<text transform="matrix(1 0 0 1 133.6133 45.2734)" class="st1 st2">Q</text>
	</g>
	<g>
		<g>
			<rect x="150" y="30" class="st0" width="20" height="20"/>
		</g>
		<text transform="matrix(1 0 0 1 154.0586 45.2734)" class="st1 st2">R</text>
	</g>
	<g>
		<g>
			<rect x="170" y="30" class="st0" width="20" height="20"/>
		</g>
		<text transform="matrix(1 0 0 1 174.5 45.2734)" class="st1 st2">S</text>
	</g>
	<g>
		<g>
			<rect x="130" y="50" class="st0" width="20" height="20"/>
		</g>
		<text transform="matrix(1 0 0 1 134.9492 65.2734)" class="st1 st2">T</text>
	</g>
	<g>
		<g>
			<rect x="150" y="50" class="st0" width="20" height="20"/>
		</g>
		<text transform="matrix(1 0 0 1 154.0586 65.2734)" class="st1 st2">U</text>
	</g>
	<g>
		<g>
			<rect x="170" y="50" class="st0" width="20" height="20"/>
		</g>
		<text transform="matrix(1 0 0 1 174.5 65.2734)" class="st1 st2">V</text>
	</g>
	<line class="st3" x1="150" y1="10" x2="150" y2="70"/>
	<line class="st3" x1="170" y1="10" x2="170" y2="70"/>
	<line class="st3" x1="130" y1="30" x2="190" y2="30"/>
	<line class="st3" x1="130" y1="50" x2="190" y2="50"/>
	<circle cx="160" cy="27.5" r="1.5"/>
	<circle cx="147.5" cy="27.5" r="1.5"/>
	<circle cx="172.5" cy="27.5" r="1.5"/>
	<circle cx="160.5" cy="47.5" r="1.5"/>
	<circle cx="147.7" cy="39.4" r="1.5"/>
	<circle cx="172.7" cy="39.4" r="1.5"/>
	<circle cx="160.2" cy="52.4" r="1.5"/>
	<circle cx="147.7" cy="52.4" r="1.5"/>
	<circle cx="172.7" cy="52.4" r="1.5"/>
</g>
<g id="W-Z">
	<text transform="matrix(1 0 0 1 212.1013 31.5217)" class="st1 st2">W</text>
	<g>
		<line class="st4" x1="200" y1="19.8" x2="240" y2="59.8"/>
		<line class="st4" x1="240" y1="19.8" x2="200" y2="59.8"/>
	</g>
	<text transform="matrix(1 0 0 1 214.7654 59.0585)" class="st1 st2">Z</text>
	<text transform="matrix(1 0 0 1 200.1485 45.0585)" class="st1 st2">X</text>
	<text transform="matrix(1 0 0 1 228.8513 45.0579)" class="st1 st2">Y</text>
	<circle cx="220" cy="44.5" r="1.5"/>
	<circle cx="214.5" cy="39.5" r="1.5"/>
	<circle cx="225.5" cy="39.5" r="1.5"/>
	<circle cx="220" cy="34.5" r="1.5"/>
</g>
</svg>
