<?xml version="1.0" encoding="utf-8"?>
<!-- Generator: Adobe Illustrator 26.2.1, SVG Export Plug-In . SVG Version: 6.00 Build 0)  -->
<svg version="1.1" id="Layer_1" xmlns="http://www.w3.org/2000/svg" xmlns:xlink="http://www.w3.org/1999/xlink" x="0px" y="0px"
	 viewBox="0 0 721 442" style="enable-background:new 0 0 721 442;" xml:space="preserve">
<style type="text/css">
	.st0{fill:#FFFFFF;stroke:#000000;stroke-miterlimit:10;}
	.st1{font-family:'MyriadPro-Regular';}
	.st2{font-size:12px;}
	.st3{fill:none;}
	.st4{font-family:'MyriadPro-Bold';}
	.st5{font-size:18px;}
</style>
<rect x="151.5" y="5.5" class="st0" width="36" height="36"/>
<rect x="151.5" y="41.5" class="st0" width="36" height="36"/>
<rect x="151.5" y="77.5" class="st0" width="36" height="36"/>
<rect x="151.5" y="113.5" class="st0" width="36" height="36"/>
<rect x="151.5" y="149.5" class="st0" width="36" height="36"/>
<rect x="151.5" y="185.5" class="st0" width="36" height="36"/>
<rect x="115.5" y="41.5" class="st0" width="36" height="36"/>
<rect x="79.5" y="41.5" class="st0" width="36" height="36"/>
<rect x="115.5" y="149.5" class="st0" width="36" height="36"/>
<rect x="79.5" y="149.5" class="st0" width="36" height="36"/>
<rect x="223.5" y="41.5" class="st0" width="36" height="36"/>
<rect x="187.5" y="41.5" class="st0" width="36" height="36"/>
<rect x="259.5" y="41.5" class="st0" width="36" height="36"/>
<rect x="187.5" y="149.5" class="st0" width="36" height="36"/>
<rect x="223.5" y="113.5" class="st0" width="36" height="36"/>
<rect x="223.5" y="149.5" class="st0" width="36" height="36"/>
<rect x="223.5" y="185.5" class="st0" width="36" height="36"/>
<rect x="223.5" y="221.5" class="st0" width="36" height="36"/>
<rect x="223.5" y="257.5" class="st0" width="36" height="36"/>
<rect x="223.5" y="293.5" class="st0" width="36" height="36"/>
<rect x="295.5" y="149.5" class="st0" width="36" height="36"/>
<rect x="259.5" y="149.5" class="st0" width="36" height="36"/>
<rect x="115.5" y="329.5" class="st0" width="36" height="36"/>
<rect x="79.5" y="329.5" class="st0" width="36" height="36"/>
<rect x="43.5" y="329.5" class="st0" width="36" height="36"/>
<rect x="151.5" y="329.5" class="st0" width="36" height="36"/>
<rect x="187.5" y="329.5" class="st0" width="36" height="36"/>
<rect x="259.5" y="329.5" class="st0" width="36" height="36"/>
<rect x="223.5" y="329.5" class="st0" width="36" height="36"/>
<rect x="7.5" y="221.5" class="st0" width="36" height="36"/>
<rect x="7.5" y="257.5" class="st0" width="36" height="36"/>
<rect x="7.5" y="293.5" class="st0" width="36" height="36"/>
<rect x="7.5" y="329.5" class="st0" width="36" height="36"/>
<rect x="7.5" y="365.5" class="st0" width="36" height="36"/>
<rect x="79.5" y="365.5" class="st0" width="36" height="36"/>
<rect x="79.5" y="401.5" class="st0" width="36" height="36"/>
<rect x="79.5" y="293.5" class="st0" width="36" height="36"/>
<text transform="matrix(1 0 0 1 151.5 15.5439)" class="st1 st2">1</text>
<text transform="matrix(1 0 0 1 79.5 51.5439)" class="st1 st2">2</text>
<text transform="matrix(1 0 0 1 223.5 123.5439)" class="st1 st2">3</text>
<text transform="matrix(1 0 0 1 79.5 159.5439)" class="st1 st2">4</text>
<text transform="matrix(1 0 0 1 7.5 231.5439)" class="st1 st2">5</text>
<text transform="matrix(1 0 0 1 79.5 303.5439)" class="st1 st2">6</text>
<text transform="matrix(1 0 0 1 7.5 339.5439)" class="st1 st2">7</text>
<rect x="259.5" y="329.5" class="st0" width="36" height="36"/>
<rect x="259.5" y="329.5" class="st0" width="36" height="36"/>
<rect x="363.4" y="10.74" class="st3" width="351.6" height="406.18"/>
<text transform="matrix(1 0 0 1 363.4004 23.5161)"><tspan x="0" y="0" class="st4 st5">Across</tspan><tspan x="0" y="27.6" class="st1 st5">2. A mythical beast known for hording treasure </tspan><tspan x="14" y="49.2" class="st1 st5">and kidnapping maidens.</tspan><tspan x="0" y="76.8" class="st1 st5">4. A mythical horse with one horn on its head.</tspan><tspan x="0" y="104.4" class="st1 st5">7. A large grey animal with a long trunk.</tspan><tspan x="0" y="159.6" class="st4 st5">Down</tspan><tspan x="0" y="187.2" class="st1 st5">1. A rodent known for its long ears, fluffy tail, </tspan><tspan x="14" y="208.8" class="st1 st5">and long hops.</tspan><tspan x="0" y="236.4" class="st1 st5">3. A mammal that lives in water and is known </tspan><tspan x="14" y="258" class="st1 st5">for its sociable nature and high intelligence.</tspan><tspan x="0" y="285.6" class="st1 st5">5. A fierce feline with striped fur.</tspan><tspan x="0" y="313.2" class="st1 st5">6. A fast swimming animal that can be trained </tspan><tspan x="14" y="334.8" class="st1 st5">to juggle balls on its snout.</tspan></text>
</svg>
